<svg xmlns="http://www.w3.org/2000/svg" xmlns:xlink="http://www.w3.org/1999/xlink" version="1.1" width="1000" height="1000" viewBox="0 0 1000 1000" xml:space="preserve">
<desc>Created with Fabric.js 3.5.0</desc>
<defs>
</defs>
<rect x="0" y="0" width="100%" height="100%" fill="#242424"/>
<g transform="matrix(1.7893 0 0 1.7893 500.0038 500.0038)" id="477209">
<path style="stroke: none; stroke-width: 1; stroke-dasharray: none; stroke-linecap: butt; stroke-dashoffset: 0; stroke-linejoin: miter; stroke-miterlimit: 4; is-custom-font: none; font-file-url: none; fill: rgb(255,255,255); fill-rule: nonzero; opacity: 1;" vector-effect="non-scaling-stroke" transform=" translate(-254.0375, -257.9625)" d="M 441 58.9 L 453.1 71 c 9.4 9.4 9.4 24.6 0 33.9 L 424 134.1 L 377.9 88 L 407 58.9 c 9.4 -9.4 24.6 -9.4 33.9 0 z M 209.8 256.2 L 344 121.9 L 390.1 168 L 255.8 302.2 c -2.9 2.9 -6.5 5 -10.4 6.1 l -58.5 16.7 l 16.7 -58.5 c 1.1 -3.9 3.2 -7.5 6.1 -10.4 z M 373.1 25 L 175.8 222.2 c -8.7 8.7 -15 19.4 -18.3 31.1 l -28.6 100 c -2.4 8.4 -0.1 17.4 6.1 23.6 s 15.2 8.5 23.6 6.1 l 100 -28.6 c 11.8 -3.4 22.5 -9.7 31.1 -18.3 L 487 138.9 c 28.1 -28.1 28.1 -73.7 0 -101.8 L 474.9 25 C 446.8 -3.1 401.2 -3.1 373.1 25 z M 88 64 C 39.4 64 0 103.4 0 152 V 424 c 0 48.6 39.4 88 88 88 H 360 c 48.6 0 88 -39.4 88 -88 V 312 c 0 -13.3 -10.7 -24 -24 -24 s -24 10.7 -24 24 V 424 c 0 22.1 -17.9 40 -40 40 H 88 c -22.1 0 -40 -17.9 -40 -40 V 152 c 0 -22.1 17.9 -40 40 -40 H 200 c 13.3 0 24 -10.7 24 -24 s -10.7 -24 -24 -24 H 88 z" stroke-linecap="round"/>
</g>
</svg>